<svg xmlns="http://www.w3.org/2000/svg" viewBox="0 0 718.47 205.13"><defs><style>.cls-1{fill:#fff;}</style></defs><g id="Layer_2" data-name="Layer 2"><g id="Layer_1-2" data-name="Layer 1"><path class="cls-1" d="M214,94.17a1,1,0,0,0,.62-.22,1,1,0,0,0,.38-.76c0-.14,0-.35,0-.62s-.07-1-.07-1.65a11.41,11.41,0,0,0-.3-2.22,1,1,0,0,0-.76-.75c-21.91-5-33-9.81-51.41-22.58a1,1,0,0,0-.57-.17l-.23,0a1,1,0,0,0-.65.5c-.42.79-.88,1.58-1.32,2.34l-.84,1.46a1,1,0,0,0,.3,1.31c18.73,12.9,31,18.13,54.67,23.32Z"/><path class="cls-1" d="M75.27,144.78l-4.1-2.88a1,1,0,0,0-.57-.18,1,1,0,0,0-.49.12c-13.32,7.39-22,10.36-37.65,14.63a10.16,10.16,0,0,1-2.63.35,9.94,9.94,0,0,1-3.89-.79,3.3,3.3,0,0,1-1.82-1.95,9.82,9.82,0,0,1-.4-4.78A152.76,152.76,0,0,0,19.1,90.1l0-.07a8.52,8.52,0,0,1,5.85-10.59,382.73,382.73,0,0,0,82.56-38.92,12.8,12.8,0,0,1,8.21-1.12,10.17,10.17,0,0,0,2.21.23c.29,0,.59,0,.88,0a9.13,9.13,0,0,1,6.78,3.15c8.09,8.61,12.58,13,21.63,19.61a1,1,0,0,0,.59.19.75.75,0,0,0,.21,0,1,1,0,0,0,.66-.49c.32-.57.69-1.11,1.07-1.68A21.12,21.12,0,0,0,151,58.3a1,1,0,0,0-.29-1.28c-8.59-6.27-12.66-10.41-19.69-17.79a10.06,10.06,0,0,1-2.63-8.51,10.66,10.66,0,0,0-8.78-12.23,11.11,11.11,0,0,0-1.73-.14,10.59,10.59,0,0,0-10.49,8.9v0a10,10,0,0,1-4.56,6.86A374.44,374.44,0,0,1,23,71.8a10,10,0,0,1-8-.73A10.12,10.12,0,0,0,4.74,88.51a10,10,0,0,1,4.34,5.87,141.91,141.91,0,0,1,4.05,52.5,10,10,0,0,1-4.11,7A11.76,11.76,0,0,0,6.3,170.31a11.81,11.81,0,0,0,9.56,4.91,11.75,11.75,0,0,0,10.65-6.82,10,10,0,0,1,6.5-5.46c17.2-4.58,27.37-8,42.18-16.48a1,1,0,0,0,.08-1.68Z"/><path class="cls-1" d="M244.41,92.88a13.19,13.19,0,0,0-13-11.19h-.51a10.05,10.05,0,0,1-7.44-3.31,303.65,303.65,0,0,1-36.25-51,10,10,0,0,1-.58-8.62,13.69,13.69,0,1,0-23.19,3.75,10.05,10.05,0,0,1,1.8,9.7C157.62,54.36,147,74.05,133.83,90.74a179.24,179.24,0,0,1-50,43.26,1,1,0,0,0-.49.84,1,1,0,0,0,.44.86l4.14,2.8a1,1,0,0,0,.56.17,1,1,0,0,0,.52-.15c40.11-24.16,68.24-60.48,83.6-108a2.33,2.33,0,0,1,1-1,2.27,2.27,0,0,1,3.06.95A312,312,0,0,0,215.9,86.09a10.06,10.06,0,0,1,2.47,7.51,12.83,12.83,0,0,0,.38,4.57,10,10,0,0,1-1.13,7.77,245.14,245.14,0,0,0-27.34,63.39,10,10,0,0,1-5.38,6.42,15.36,15.36,0,0,0-4.05,2.62,10,10,0,0,1-6.69,2.57,10.21,10.21,0,0,1-3.14-.5C110.21,160.32,65.15,132.69,24.94,90.86L24,89.93a1,1,0,0,0-1.19-.17,1,1,0,0,0-.49,1.09,66.42,66.42,0,0,0,2.76,8.81.86.86,0,0,0,.23.35c42.83,41.61,86,67.55,144.42,86.74a9.94,9.94,0,0,1,6.54,6.94A15.34,15.34,0,0,0,195,204.62,15.35,15.35,0,0,0,206,185.86a15.41,15.41,0,0,0-3-5.87,10,10,0,0,1-1.93-9,234.58,234.58,0,0,1,25.24-58.45,10,10,0,0,1,7.08-4.72A13.13,13.13,0,0,0,244.41,92.88Z"/><path class="cls-1" d="M316.89,32.43A28.15,28.15,0,0,1,337,40.16a1.54,1.54,0,0,1,.08,2.33L332,47.74a1.34,1.34,0,0,1-2.08,0,19.67,19.67,0,0,0-12.81-4.92c-10.64,0-18.54,8.91-18.54,19.39s8,19.21,18.63,19.21a20,20,0,0,0,12.72-4.74,1.52,1.52,0,0,1,2.08,0L337.18,82a1.58,1.58,0,0,1-.09,2.25,28.5,28.5,0,0,1-20.2,8.06,29.94,29.94,0,1,1,0-59.88Z"/><path class="cls-1" d="M373.47,32.43a29.94,29.94,0,1,1-29.86,30A29.88,29.88,0,0,1,373.47,32.43Zm0,49.07a19.13,19.13,0,1,0-19-19A19.17,19.17,0,0,0,373.47,81.5Z"/><path class="cls-1" d="M414.34,34.84a1.57,1.57,0,0,1,1.5-1.58h19.7a29.11,29.11,0,1,1,0,58.22h-19.7a1.57,1.57,0,0,1-1.5-1.57Zm20.21,46.5c10.81,0,18.71-8.16,18.71-19.05s-7.9-19-18.71-19h-9.48v38Z"/><path class="cls-1" d="M475.76,34.84a1.58,1.58,0,0,1,1.57-1.58h33.85a1.59,1.59,0,0,1,1.59,1.58v6.83a1.58,1.58,0,0,1-1.59,1.57H486.57V56.89h20.55a1.64,1.64,0,0,1,1.58,1.57v6.91a1.58,1.58,0,0,1-1.58,1.57H486.57V81.5h24.61a1.59,1.59,0,0,1,1.59,1.58v6.83a1.58,1.58,0,0,1-1.59,1.57H477.33a1.57,1.57,0,0,1-1.57-1.57Z"/><path class="cls-1" d="M541.27,68.26h-3.35a.66.66,0,0,1-.68-.81l.13-.8a1,1,0,0,1,.87-.81h3.34l1.23-8.78c1-7.07,4.77-10.42,9.91-10.42a7.65,7.65,0,0,1,5.88,2.67.75.75,0,0,1-.05,1l-.76.74a.65.65,0,0,1-1,0,6.72,6.72,0,0,0-4-1.92c-3.7,0-6.44,2.54-7.24,8.23l-1.18,8.49h7.93a.61.61,0,0,1,.68.74l-.13.94a.82.82,0,0,1-.86.74H544l-5.7,40.12a1,1,0,0,1-.92.81h-1.12a.68.68,0,0,1-.68-.81Z"/><path class="cls-1" d="M568,65.23c5.39,0,9.48,5.07,9.48,11.2,0,8.11-6,14.8-13.13,14.8-5.38,0-9.54-5-9.54-11.2C554.83,72,560.78,65.23,568,65.23Zm-3.34,23.45c5.26,0,10-5.37,10-12,0-4.89-2.85-8.86-7.05-8.86-5.33,0-10.1,5.39-10.1,12C557.56,84.73,560.4,88.68,564.68,88.68Z"/><path class="cls-1" d="M586.61,66.65a1,1,0,0,1,.87-.81h.81a.65.65,0,0,1,.63.69l-.14,2.35a9.4,9.4,0,0,1,7.43-3.65,7.41,7.41,0,0,1,3.29.73c.49.25.74.62.49,1.12l-.62,1.23a.7.7,0,0,1-1,.32,5,5,0,0,0-2.67-.81c-4.32,0-6.92,4-7.12,4.33L586.06,89.8a.8.8,0,0,1-.87.81h-1.3c-.44,0-.62-.38-.56-.81Z"/><path class="cls-1" d="M283.53,168.38l25.87-56a1.51,1.51,0,0,1,1.41-.91h.84a1.42,1.42,0,0,1,1.41.91l25.61,56a1.45,1.45,0,0,1-1.4,2.15H330a2.39,2.39,0,0,1-2.41-1.66l-4.08-9H298.67l-4.08,9a2.5,2.5,0,0,1-2.41,1.66H285A1.46,1.46,0,0,1,283.53,168.38Zm35.94-17.72-8.33-18.3h-.24l-8.15,18.3Z"/><path class="cls-1" d="M344.61,113.89a1.65,1.65,0,0,1,1.58-1.58h7.9a1.58,1.58,0,0,1,1.58,1.58v34c0,7.08,4.82,12.65,12.07,12.65S379.88,155,379.88,148V113.89a1.58,1.58,0,0,1,1.57-1.58h7.9a1.64,1.64,0,0,1,1.58,1.58v34.6a23.16,23.16,0,0,1-46.32,0Z"/><path class="cls-1" d="M401.87,162.38l3-5.15a1.92,1.92,0,0,1,2.82-.59c.42.26,7.16,5.16,12.56,5.16,4.33,0,7.57-2.82,7.57-6.4,0-4.25-3.57-7.15-10.56-10-7.81-3.16-15.64-8.15-15.64-18,0-7.4,5.49-16,18.72-16A29.27,29.27,0,0,1,437,117.06a2,2,0,0,1,.49,2.74l-3.15,4.74c-.67,1-1.92,1.67-2.92,1-.65-.42-7-4.58-11.55-4.58-4.74,0-7.32,3.17-7.32,5.83,0,3.9,3.07,6.56,9.81,9.32,8.07,3.23,17.38,8.06,17.38,18.79,0,8.57-7.4,16.46-19.12,16.46-10.48,0-16.64-4.9-18.3-6.48C401.53,164.13,401.12,163.71,401.87,162.38Z"/><path class="cls-1" d="M458.19,122.3H445.46a1.58,1.58,0,0,1-1.57-1.58v-6.83a1.58,1.58,0,0,1,1.57-1.58h36.35a1.59,1.59,0,0,1,1.58,1.58v6.83a1.59,1.59,0,0,1-1.58,1.58H469.09V169a1.64,1.64,0,0,1-1.58,1.57h-7.74a1.64,1.64,0,0,1-1.58-1.57Z"/><path class="cls-1" d="M492.07,113.89a1.58,1.58,0,0,1,1.57-1.58h23.79a18,18,0,0,1,18.13,17.89c0,7.65-5.07,13.89-12.31,16.8l11.4,21.12a1.57,1.57,0,0,1-1.41,2.41H524.5a1.4,1.4,0,0,1-1.33-.75l-11.07-22h-9.23V169a1.63,1.63,0,0,1-1.58,1.57h-7.65a1.57,1.57,0,0,1-1.57-1.57Zm24.44,25a8.48,8.48,0,0,0,8.24-8.49,8.27,8.27,0,0,0-8.24-8.06H503v16.55Z"/><path class="cls-1" d="M539.92,168.38l25.86-56a1.51,1.51,0,0,1,1.42-.91H568a1.43,1.43,0,0,1,1.42.91l25.61,56a1.46,1.46,0,0,1-1.41,2.15h-7.24a2.39,2.39,0,0,1-2.41-1.66l-4.08-9H555.05l-4.07,9a2.5,2.5,0,0,1-2.41,1.66h-7.24A1.46,1.46,0,0,1,539.92,168.38Zm35.93-17.72-8.32-18.3h-.24l-8.16,18.3Z"/><path class="cls-1" d="M602.66,113.89a1.59,1.59,0,0,1,1.58-1.58h7.65a1.65,1.65,0,0,1,1.58,1.58v46.66h21.21a1.58,1.58,0,0,1,1.58,1.59V169a1.57,1.57,0,0,1-1.58,1.57H604.24a1.58,1.58,0,0,1-1.58-1.57Z"/><path class="cls-1" d="M644.68,113.89a1.65,1.65,0,0,1,1.58-1.58H654a1.64,1.64,0,0,1,1.57,1.58V169a1.63,1.63,0,0,1-1.57,1.57h-7.74a1.64,1.64,0,0,1-1.58-1.57Z"/><path class="cls-1" d="M663.16,168.38l25.86-56a1.51,1.51,0,0,1,1.42-.91h.83a1.4,1.4,0,0,1,1.41.91l25.62,56a1.46,1.46,0,0,1-1.41,2.15h-7.24a2.39,2.39,0,0,1-2.41-1.66l-4.08-9H678.29l-4.07,9a2.51,2.51,0,0,1-2.41,1.66h-7.23A1.46,1.46,0,0,1,663.16,168.38Zm35.93-17.72-8.32-18.3h-.25l-8.15,18.3Z"/></g></g></svg>